<svg width="128" height="128" viewBox="0 0 128 128" fill="none" xmlns="http://www.w3.org/2000/svg">
<g clip-path="url(#clip0_2625_154)">
<mask id="mask0_2625_154" style="mask-type:luminance" maskUnits="userSpaceOnUse" x="0" y="0" width="128" height="128">
<path d="M128 0H0V128H128V0Z" fill="white"/>
</mask>
<g mask="url(#mask0_2625_154)">
<path d="M128 0H0V128H128V0Z" fill="#1F8383"/>
<path d="M58.2488 82.8789C58.2488 88.5536 58.498 94.7756 58.9955 101.546H26.1422C22.0604 85.7162 20.0195 68.8915 20.0195 51.0709C20.0195 42.0114 20.5671 33.9474 21.6622 26.8789H102.601C105.488 38.1287 107.081 51.5189 107.379 67.0496C92.6454 73.6202 76.2686 77.901 58.2488 79.8922V82.8789ZM58.3981 69.5882C64.77 68.7917 70.096 67.1989 74.3768 64.8096C72.784 54.2568 68.5033 44.8983 61.5341 36.7349C59.9414 46.5909 58.896 57.5422 58.3981 69.5882Z" fill="white"/>
</g>
</g>
<defs>
<clipPath id="clip0_2625_154">
<rect width="128" height="128" rx="25" fill="white"/>
</clipPath>
</defs>
</svg>
